<svg xmlns="http://www.w3.org/2000/svg" width="512" height="512"><path d="M256.947 333.998c-5.522 0-10 4.477-10 10s4.478 10 10 10h.096c5.522 0 9.952-4.477 9.952-10s-4.525-10-10.048-10zM54.069 296.93C52.21 295.07 49.63 294 47 294s-5.21 1.07-7.07 2.93S37 301.37 37 304c0 2.64 1.069 5.21 2.93 7.07 1.861 1.86 4.44 2.93 7.07 2.93s5.21-1.07 7.069-2.93C55.93 309.21 57 306.63 57 304s-1.07-5.21-2.931-7.07z" data-original="#000000" class="active-path" data-old_color="#000000" fill="#FFF"/><path d="M470 19.998H42c-23.159 0-42 18.841-42 42v282c0 27.57 22.43 50 50 50h152v38.004h-14c-23.159 0-42 18.841-42 42v8c0 5.523 4.478 10 10 10h200c5.522 0 10-4.477 10-10v-8c0-23.159-18.841-42-42-42h-14v-38.004h152c27.57 0 50-22.43 50-50v-282c0-23.159-18.841-42-42-42zM324 452.002c11.457 0 20.896 8.802 21.91 20H166.09c1.014-11.198 10.453-20 21.91-20h136zm-102-20v-38.004h68v38.004h-68zm270-88.004c0 16.542-13.458 30-30 30H50c-16.542 0-30-13.458-30-30v-282c0-12.131 9.869-22 22-22h204v254.004H83c-5.522 0-10 4.477-10 10s4.478 10 10 10h409v29.996zm0-49.996H266V39.998h204c12.131 0 22 9.869 22 22v232.004z" data-original="#000000" class="active-path" data-old_color="#000000" fill="#FFF"/><path d="M452.127 59.998h-156c-5.522 0-10 4.477-10 10v72c0 5.523 4.477 10 10 10h156c5.522 0 10-4.477 10-10v-72c0-5.523-4.478-10-10-10zm-10 72h-136v-52h136v52zm-316.553 37.999H60.376c-5.522 0-10 4.477-10 10s4.478 10 10 10h65.198c5.523 0 10-4.477 10-10s-4.478-10-10-10zm84.209 0h-49.796c-5.522 0-10 4.477-10 10s4.478 10 10 10h49.796c5.522 0 10-4.477 10-10s-4.478-10-10-10zm0 79.989h-18.619c-5.522 0-10 4.477-10 10s4.478 10 10 10h18.619c5.522 0 10-4.477 10-10s-4.477-10-10-10zm-58.494.011H60.376c-5.522 0-10 4.477-10 10s4.478 10 10 10h90.913c5.523 0 10-4.477 10-10s-4.478-10-10-10zm-58.313-40.002h-32.6c-5.522 0-10 4.477-10 10s4.478 10 10 10h32.6c5.522 0 10-4.477 10-10s-4.478-10-10-10zm116.807 0H141c-5.522 0-10 4.477-10 10s4.478 10 10 10h68.783c5.522 0 10-4.477 10-10s-4.477-10-10-10zm242.344-39.998H296.571c-5.522 0-10 4.477-10 10s4.478 10 10 10h155.556c5.522 0 10-4.477 10-10s-4.478-10-10-10zm7.073 82.933a10.05 10.05 0 00-7.07-2.93c-2.64 0-5.21 1.06-7.07 2.93a10.016 10.016 0 00-2.93 7.07c0 2.63 1.06 5.21 2.93 7.07a10.06 10.06 0 007.07 2.93c2.63 0 5.2-1.07 7.07-2.93a10.08 10.08 0 002.93-7.07c0-2.64-1.07-5.21-2.93-7.07zm-47.7-2.933H296.571c-5.522 0-10 4.477-10 10s4.478 10 10 10H411.5c5.522 0 10-4.477 10-10s-4.478-10-10-10zm40.627-40.002H296.571c-5.522 0-10 4.477-10 10s4.478 10 10 10h155.556c5.522 0 10-4.477 10-10s-4.478-10-10-10zM74.517 101.997l18.852-18.852c3.905-3.905 3.905-10.237 0-14.142-3.906-3.905-10.236-3.905-14.143 0L53.305 94.927c-3.905 3.905-3.905 10.237 0 14.142l25.922 25.922a9.968 9.968 0 007.071 2.929 9.972 9.972 0 007.071-2.929c3.905-3.905 3.905-10.237 0-14.142l-18.852-18.852zm138.178-7.069l-25.922-25.922c-3.904-3.905-10.234-3.905-14.143 0-3.905 3.905-3.905 10.237 0 14.142L191.482 102l-18.852 18.852c-3.904 3.903-3.904 10.234.001 14.14a9.968 9.968 0 007.071 2.929 9.972 9.972 0 007.071-2.929l25.922-25.922c3.905-3.905 3.905-10.237 0-14.142zm-56.327-32.693c-4.763-2.799-10.891-1.207-13.688 3.555l-36.602 62.283c-2.799 4.761-1.207 10.89 3.555 13.688a9.995 9.995 0 0013.688-3.555l36.602-62.283c2.799-4.761 1.207-10.89-3.555-13.688z" data-original="#000000" class="active-path" data-old_color="#000000" fill="#FFF"/></svg>